<svg width="1600" height="1000" viewBox="0 0 1600 1000" fill="none" xmlns="http://www.w3.org/2000/svg">
  <defs>
    <linearGradient id="paper" x1="0" y1="0" x2="1600" y2="1000" gradientUnits="userSpaceOnUse">
      <stop stop-color="#F5EAD2"/>
      <stop offset="1" stop-color="#E8D6B8"/>
    </linearGradient>
    <filter id="grain" x="-20%" y="-20%" width="140%" height="140%">
      <feTurbulence type="fractalNoise" baseFrequency="0.9" numOctaves="2" stitchTiles="stitch"/>
      <feColorMatrix type="saturate" values="0"/>
      <feComponentTransfer>
        <feFuncA type="table" tableValues="0 0.05"/>
      </feComponentTransfer>
    </filter>
  </defs>

  <rect width="1600" height="1000" fill="url(#paper)"/>
  <rect width="1600" height="1000" filter="url(#grain)"/>

  <ellipse cx="300" cy="170" rx="220" ry="120" fill="#8B5E3C" opacity="0.08"/>
  <ellipse cx="1330" cy="850" rx="240" ry="130" fill="#8B5E3C" opacity="0.08"/>

  <rect x="190" y="170" width="1220" height="660" rx="26" stroke="#6E4F34" stroke-width="6" opacity="0.6"/>

  <rect x="280" y="250" width="560" height="500" rx="18" fill="#F8F0DF" stroke="#6E4F34" stroke-width="5"/>
  <text x="330" y="330" fill="#6E4F34" font-family="Georgia, serif" font-size="54">Newsletter</text>
  <line x1="330" y1="390" x2="790" y2="390" stroke="#6E4F34" stroke-width="4" opacity="0.5"/>
  <line x1="330" y1="445" x2="790" y2="445" stroke="#6E4F34" stroke-width="4" opacity="0.35"/>
  <line x1="330" y1="500" x2="760" y2="500" stroke="#6E4F34" stroke-width="4" opacity="0.35"/>
  <line x1="330" y1="555" x2="785" y2="555" stroke="#6E4F34" stroke-width="4" opacity="0.35"/>

  <rect x="910" y="250" width="410" height="500" rx="18" fill="#F8F0DF" stroke="#6E4F34" stroke-width="5"/>
  <path d="M1020 455L1180 380L1170 430L1240 470L1220 510L1150 470L1125 525L1020 455Z" stroke="#6E4F34" stroke-width="7" fill="none"/>
  <path d="M1000 605C1070 560 1180 560 1250 605" stroke="#6E4F34" stroke-width="6" stroke-linecap="round"/>
  <circle cx="1030" cy="605" r="9" fill="#6E4F34"/>
  <circle cx="1220" cy="605" r="9" fill="#6E4F34"/>

  <path d="M860 500H900" stroke="#6E4F34" stroke-width="6" stroke-linecap="round"/>
  <path d="M840 472L890 500L840 528" stroke="#6E4F34" stroke-width="6" stroke-linecap="round" stroke-linejoin="round"/>
</svg>
